{"extensionsUsed" : ["KHR_materials_unlit"], "accessors" : [{"bufferView" : 0, "byteOffset" : 0, "componentType" : 5123, "count" : 1356, "type" : "SCALAR", "max" : [637], "min" : [0]}, {"bufferView" : 1, "byteOffset" : 0, "componentType" : 5126, "count" : 638, "type" : "VEC3", "max" : [0.6039999723434448, 0.9976196885108948, 0.6550543308258057], "min" : [-0.5960000157356262, 0, -0.6449456810951233], "name" : "POSITION"}, {"bufferView" : 1, "byteOffset" : 12, "componentType" : 5126, "count" : 638, "type" : "VEC3", "max" : [1.0000044107437134, 1.0000044107437134, 1.0000044107437134], "min" : [-1.0000044107437134, -1.0000044107437134, -1.0000044107437134], "name" : "NORMAL"}, {"bufferView" : 1, "byteOffset" : 24, "componentType" : 5126, "count" : 638, "type" : "VEC2", "max" : [25.789541244506836, 27.789541244506836], "min" : [-25.789541244506836, -37.2763671875], "name" : "TEXCOORD_0"}, {"bufferView" : 0, "byteOffset" : 2712, "componentType" : 5123, "count" : 369, "type" : "SCALAR", "max" : [186], "min" : [0]}, {"bufferView" : 2, "byteOffset" : 0, "componentType" : 5126, "count" : 187, "type" : "VEC3", "max" : [0.6539999842643738, 1.1375000476837158, 0.7029456496238708], "min" : [-0.6539999842643738, 0.32563260197639465, -0.7029456496238708], "name" : "POSITION"}, {"bufferView" : 2, "byteOffset" : 12, "componentType" : 5126, "count" : 187, "type" : "VEC3", "max" : [1.0000044107437134, 0.9578304886817932, 1.0000044107437134], "min" : [-1.0000044107437134, -0.9578304886817932, -0.8000035285949707], "name" : "NORMAL"}, {"bufferView" : 2, "byteOffset" : 24, "componentType" : 5126, "count" : 187, "type" : "VEC2", "max" : [27.675025939941406, 24.82401466369629], "min" : [-27.675025939941406, -42.78346633911133], "name" : "TEXCOORD_0"}, {"bufferView" : 0, "byteOffset" : 3452, "componentType" : 5123, "count" : 111, "type" : "SCALAR", "max" : [74], "min" : [0]}, {"bufferView" : 3, "byteOffset" : 0, "componentType" : 5126, "count" : 75, "type" : "VEC3", "max" : [0.5839999914169312, 0.9726795554161072, 0.5350543260574341], "min" : [-0.5760000348091125, 0.05000000074505806, -0.6249456405639648], "name" : "POSITION"}, {"bufferView" : 3, "byteOffset" : 12, "componentType" : 5126, "count" : 75, "type" : "VEC3", "max" : [1.0000044107437134, 0, 1.0000044107437134], "min" : [-1.0000044107437134, 0, -1.0000044107437134], "name" : "NORMAL"}, {"bufferView" : 3, "byteOffset" : 24, "componentType" : 5126, "count" : 75, "type" : "VEC2", "max" : [21.454553604125977, 0.03149604797363281], "min" : [-19.842519760131836, -36.294471740722656], "name" : "TEXCOORD_0"}, {"bufferView" : 0, "byteOffset" : 3676, "componentType" : 5123, "count" : 408, "type" : "SCALAR", "max" : [376], "min" : [0]}, {"bufferView" : 4, "byteOffset" : 0, "componentType" : 5126, "count" : 377, "type" : "VEC3", "max" : [0.6539999842643738, 1.1375000476837158, 0.5550543665885925], "min" : [-0.5960000157356262, 0.05000000074505806, -0.6449456810951233], "name" : "POSITION"}, {"bufferView" : 4, "byteOffset" : 12, "componentType" : 5126, "count" : 377, "type" : "VEC3", "max" : [1.0000044107437134, 0, 1.0000044107437134], "min" : [-1.0000044107437134, -0.8000035285949707, -1.0000044107437134], "name" : "NORMAL"}, {"bufferView" : 4, "byteOffset" : 24, "componentType" : 5126, "count" : 377, "type" : "VEC2", "max" : [23.77952766418457, 2], "min" : [-25.748031616210938, -36.09872055053711], "name" : "TEXCOORD_0"}, {"bufferView" : 0, "byteOffset" : 4492, "componentType" : 5123, "count" : 54, "type" : "SCALAR", "max" : [19], "min" : [0]}, {"bufferView" : 5, "byteOffset" : 0, "componentType" : 5126, "count" : 20, "type" : "VEC3", "max" : [0.5339999794960022, 0.26999998092651367, 0.5350543260574341], "min" : [-0.06599999964237213, 1.804778527019556E-16, -0.6249456405639648], "name" : "POSITION"}, {"bufferView" : 5, "byteOffset" : 12, "componentType" : 5126, "count" : 20, "type" : "VEC3", "max" : [0, 0, 1.0000044107437134], "min" : [0, 0, -1.0000044107437134], "name" : "NORMAL"}, {"bufferView" : 5, "byteOffset" : 24, "componentType" : 5126, "count" : 20, "type" : "VEC2", "max" : [21.023622512817383, 2], "min" : [-2.9133858680725098, -8.629920959472656], "name" : "TEXCOORD_0"}], "asset" : {"generator" : "Aspose.3D 25.2.0", "version" : "2.0"}, "buffers" : [{"uri" : "data:application/octet-stream;base64,", "byteLength" : 46128}], "bufferViews" : [{"buffer" : 0, "byteOffset" : 0, "byteLength" : 4600, "target" : 34963}, {"buffer" : 0, "byteOffset" : 4604, "byteLength" : 20416, "byteStride" : 32, "target" : 34962}, {"buffer" : 0, "byteOffset" : 25024, "byteLength" : 5984, "byteStride" : 32, "target" : 34962}, {"buffer" : 0, "byteOffset" : 31012, "byteLength" : 2400, "byteStride" : 32, "target" : 34962}, {"buffer" : 0, "byteOffset" : 33416, "byteLength" : 12064, "byteStride" : 32, "target" : 34962}, {"buffer" : 0, "byteOffset" : 45484, "byteLength" : 640, "byteStride" : 32, "target" : 34962}], "materials" : [{"name" : "border", "pbrMetallicRoughness" : {"baseColorFactor" : [0.56078434, 0.5686275, 0.6, 1], "metallicFactor" : 1, "roughnessFactor" : 1}, "emissiveFactor" : [0, 0, 0], "alphaMode" : "OPAQUE", "doubleSided" : false}], "meshes" : [{"primitives" : [{"attributes" : {"POSITION" : 1, "NORMAL" : 2, "TEXCOORD_0" : 3}, "indices" : 0, "material" : 0, "mode" : 4}, {"attributes" : {"POSITION" : 5, "NORMAL" : 6, "TEXCOORD_0" : 7}, "indices" : 4, "material" : 0, "mode" : 4}, {"attributes" : {"POSITION" : 9, "NORMAL" : 10, "TEXCOORD_0" : 11}, "indices" : 8, "material" : 0, "mode" : 4}, {"attributes" : {"POSITION" : 13, "NORMAL" : 14, "TEXCOORD_0" : 15}, "indices" : 12, "material" : 0, "mode" : 4}, {"attributes" : {"POSITION" : 17, "NORMAL" : 18, "TEXCOORD_0" : 19}, "indices" : 16, "material" : 0, "mode" : 4}]}], "nodes" : [{"mesh" : 0, "name" : "house_type02"}], "scene" : 0, "scenes" : [{"nodes" : [0]}]}