{"extensionsUsed" : ["KHR_texture_transform"], "accessors" : [{"bufferView" : 0, "byteOffset" : 0, "componentType" : 5123, "count" : 588, "type" : "SCALAR", "max" : [361], "min" : [0]}, {"bufferView" : 1, "byteOffset" : 0, "componentType" : 5126, "count" : 362, "type" : "VEC3", "max" : [0.26249998807907104, 0.44999998807907104, 0.4375000298023224], "min" : [-0.26249998807907104, 0.08749999850988388, -0.4375], "name" : "POSITION"}, {"bufferView" : 1, "byteOffset" : 12, "componentType" : 5126, "count" : 362, "type" : "VEC3", "max" : [1.0000044107437134, 1.0000044107437134, 1.0000044107437134], "min" : [-1.0000044107437134, -1.0000044107437134, -1.0000044107437134], "name" : "NORMAL"}, {"bufferView" : 1, "byteOffset" : 24, "componentType" : 5126, "count" : 362, "type" : "VEC4", "max" : [1.0000044107437134, 0.41485562920570374, 1.0000044107437134, 1], "min" : [-1.0000044107437134, -0.4148556590080261, -1.0000044107437134, 1], "name" : "TANGENT"}, {"bufferView" : 1, "byteOffset" : 40, "componentType" : 5126, "count" : 362, "type" : "VEC2", "max" : [0.84375, 1.975000023841858], "min" : [0.21875, 1.524999976158142], "name" : "TEXCOORD_0"}, {"bufferView" : 0, "byteOffset" : 1176, "componentType" : 5123, "count" : 660, "type" : "SCALAR", "max" : [383], "min" : [0]}, {"bufferView" : 2, "byteOffset" : 0, "componentType" : 5126, "count" : 384, "type" : "VEC3", "max" : [0.0625, 0.125, 0.125], "min" : [-0.0625, -0.125, -0.125], "name" : "POSITION"}, {"bufferView" : 2, "byteOffset" : 12, "componentType" : 5126, "count" : 384, "type" : "VEC3", "max" : [1.0000044107437134, 0.9275301694869995, 0.9275301694869995], "min" : [-1.0000044107437134, -0.9275301694869995, -0.9275301694869995], "name" : "NORMAL"}, {"bufferView" : 2, "byteOffset" : 24, "componentType" : 5126, "count" : 384, "type" : "VEC4", "max" : [0.9275301694869995, 0.3737598955631256, 1.0000044107437134, 1], "min" : [-1.0000044107437134, -0.3737598955631256, -1.0000044107437134, 1], "name" : "TANGENT"}, {"bufferView" : 2, "byteOffset" : 40, "componentType" : 5126, "count" : 384, "type" : "VEC2", "max" : [0.59375, 1.975000023841858], "min" : [0.34375, 1.774999976158142], "name" : "TEXCOORD_0"}, {"bufferView" : 0, "byteOffset" : 2496, "componentType" : 5123, "count" : 660, "type" : "SCALAR", "max" : [383], "min" : [0]}, {"bufferView" : 3, "byteOffset" : 0, "componentType" : 5126, "count" : 384, "type" : "VEC3", "max" : [0.0625, 0.125, 0.125], "min" : [-0.0625, -0.125, -0.125], "name" : "POSITION"}, {"bufferView" : 3, "byteOffset" : 12, "componentType" : 5126, "count" : 384, "type" : "VEC3", "max" : [1.0000044107437134, 0.9275301694869995, 0.9275301694869995], "min" : [-1.0000044107437134, -0.9275301694869995, -0.9275301694869995], "name" : "NORMAL"}, {"bufferView" : 3, "byteOffset" : 24, "componentType" : 5126, "count" : 384, "type" : "VEC4", "max" : [0.9275301694869995, 0.3737598955631256, 1.0000044107437134, 1], "min" : [-1.0000044107437134, -0.3737598955631256, -1.0000044107437134, 1], "name" : "TANGENT"}, {"bufferView" : 3, "byteOffset" : 40, "componentType" : 5126, "count" : 384, "type" : "VEC2", "max" : [0.59375, 1.975000023841858], "min" : [0.34375, 1.774999976158142], "name" : "TEXCOORD_0"}, {"bufferView" : 0, "byteOffset" : 3816, "componentType" : 5123, "count" : 660, "type" : "SCALAR", "max" : [383], "min" : [0]}, {"bufferView" : 4, "byteOffset" : 0, "componentType" : 5126, "count" : 384, "type" : "VEC3", "max" : [0.0625, 0.125, 0.125], "min" : [-0.0625, -0.125, -0.125], "name" : "POSITION"}, {"bufferView" : 4, "byteOffset" : 12, "componentType" : 5126, "count" : 384, "type" : "VEC3", "max" : [1.0000044107437134, 0.9275301694869995, 0.9275301694869995], "min" : [-1.0000044107437134, -0.9275301694869995, -0.9275301694869995], "name" : "NORMAL"}, {"bufferView" : 4, "byteOffset" : 24, "componentType" : 5126, "count" : 384, "type" : "VEC4", "max" : [0.9275301694869995, 0.3737598955631256, 1.0000044107437134, 1], "min" : [-1.0000044107437134, -0.3737598955631256, -1.0000044107437134, 1], "name" : "TANGENT"}, {"bufferView" : 4, "byteOffset" : 40, "componentType" : 5126, "count" : 384, "type" : "VEC2", "max" : [0.59375, 1.975000023841858], "min" : [0.34375, 1.774999976158142], "name" : "TEXCOORD_0"}, {"bufferView" : 0, "byteOffset" : 5136, "componentType" : 5123, "count" : 660, "type" : "SCALAR", "max" : [383], "min" : [0]}, {"bufferView" : 5, "byteOffset" : 0, "componentType" : 5126, "count" : 384, "type" : "VEC3", "max" : [0.0625, 0.125, 0.125], "min" : [-0.0625, -0.125, -0.125], "name" : "POSITION"}, {"bufferView" : 5, "byteOffset" : 12, "componentType" : 5126, "count" : 384, "type" : "VEC3", "max" : [1.0000044107437134, 0.9275301694869995, 0.9275301694869995], "min" : [-1.0000044107437134, -0.9275301694869995, -0.9275301694869995], "name" : "NORMAL"}, {"bufferView" : 5, "byteOffset" : 24, "componentType" : 5126, "count" : 384, "type" : "VEC4", "max" : [0.9275301694869995, 0.3737598955631256, 1.0000044107437134, 1], "min" : [-1.0000044107437134, -0.3737598955631256, -1.0000044107437134, 1], "name" : "TANGENT"}, {"bufferView" : 5, "byteOffset" : 40, "componentType" : 5126, "count" : 384, "type" : "VEC2", "max" : [0.59375, 1.975000023841858], "min" : [0.34375, 1.774999976158142], "name" : "TEXCOORD_0"}], "asset" : {"generator" : "Aspose.3D 25.2.0", "version" : "2.0"}, "buffers" : [{"uri" : "data:application/octet-stream;base64,", "byteLength" : 97584}], "bufferViews" : [{"buffer" : 0, "byteOffset" : 0, "byteLength" : 6456, "target" : 34963}, {"buffer" : 0, "byteOffset" : 6460, "byteLength" : 17376, "byteStride" : 48, "target" : 34962}, {"buffer" : 0, "byteOffset" : 23840, "byteLength" : 18432, "byteStride" : 48, "target" : 34962}, {"buffer" : 0, "byteOffset" : 42276, "byteLength" : 18432, "byteStride" : 48, "target" : 34962}, {"buffer" : 0, "byteOffset" : 60712, "byteLength" : 18432, "byteStride" : 48, "target" : 34962}, {"buffer" : 0, "byteOffset" : 79148, "byteLength" : 18432, "byteStride" : 48, "target" : 34962}], "images" : [{"uri" : "Textures/colormap.png"}], "materials" : [{"name" : "colormap", "pbrMetallicRoughness" : {"baseColorFactor" : [1, 1, 1, 1], "baseColorTexture" : {"index" : 0, "texCoord" : 0}, "metallicFactor" : 0, "roughnessFactor" : 1}, "emissiveFactor" : [0, 0, 0], "alphaMode" : "OPAQUE", "doubleSided" : true}, {"name" : "colormap", "pbrMetallicRoughness" : {"baseColorFactor" : [1, 1, 1, 1], "baseColorTexture" : {"index" : 0, "texCoord" : 0}, "metallicFactor" : 0, "roughnessFactor" : 1}, "emissiveFactor" : [0, 0, 0], "alphaMode" : "OPAQUE", "doubleSided" : true}, {"name" : "colormap", "pbrMetallicRoughness" : {"baseColorFactor" : [1, 1, 1, 1], "baseColorTexture" : {"index" : 0, "texCoord" : 0}, "metallicFactor" : 0, "roughnessFactor" : 1}, "emissiveFactor" : [0, 0, 0], "alphaMode" : "OPAQUE", "doubleSided" : true}, {"name" : "colormap", "pbrMetallicRoughness" : {"baseColorFactor" : [1, 1, 1, 1], "baseColorTexture" : {"index" : 0, "texCoord" : 0}, "metallicFactor" : 0, "roughnessFactor" : 1}, "emissiveFactor" : [0, 0, 0], "alphaMode" : "OPAQUE", "doubleSided" : true}, {"name" : "colormap", "pbrMetallicRoughness" : {"baseColorFactor" : [1, 1, 1, 1], "baseColorTexture" : {"index" : 0, "texCoord" : 0}, "metallicFactor" : 0, "roughnessFactor" : 1}, "emissiveFactor" : [0, 0, 0], "alphaMode" : "OPAQUE", "doubleSided" : true}], "meshes" : [{"primitives" : [{"attributes" : {"POSITION" : 1, "NORMAL" : 2, "TANGENT" : 3, "TEXCOORD_0" : 4}, "indices" : 0, "material" : 0, "mode" : 4}]}, {"primitives" : [{"attributes" : {"POSITION" : 6, "NORMAL" : 7, "TANGENT" : 8, "TEXCOORD_0" : 9}, "indices" : 5, "material" : 1, "mode" : 4}]}, {"primitives" : [{"attributes" : {"POSITION" : 11, "NORMAL" : 12, "TANGENT" : 13, "TEXCOORD_0" : 14}, "indices" : 10, "material" : 2, "mode" : 4}]}, {"primitives" : [{"attributes" : {"POSITION" : 16, "NORMAL" : 17, "TANGENT" : 18, "TEXCOORD_0" : 19}, "indices" : 15, "material" : 3, "mode" : 4}]}, {"primitives" : [{"attributes" : {"POSITION" : 21, "NORMAL" : 22, "TANGENT" : 23, "TEXCOORD_0" : 24}, "indices" : 20, "material" : 4, "mode" : 4}]}], "nodes" : [{"matrix" : [1, 0, 0, 0, 0, 1, 0, 0, 0, 0, 1, 0, -0.1875, 0.125, 0.25, 1], "mesh" : 1, "name" : "wheel-bl"}, {"matrix" : [1, 0, 0, 0, 0, 1, 0, 0, 0, 0, 1, 0, 0.1875, 0.125, -0.25, 1], "mesh" : 2, "name" : "wheel-fr"}, {"matrix" : [1, 0, 0, 0, 0, 1, 0, 0, 0, 0, 1, 0, -0.1875, 0.125, -0.25, 1], "mesh" : 3, "name" : "wheel-fl"}, {"matrix" : [1, 0, 0, 0, 0, 1, 0, 0, 0, 0, 1, 0, 0.1875, 0.125, 0.25, 1], "mesh" : 4, "name" : "wheel-br"}, {"children" : [0, 1, 2, 3], "mesh" : 0, "name" : "vehicle-racer"}], "samplers" : [{"magFilter" : 9728, "minFilter" : 9984, "wrapS" : 10497, "wrapT" : 10497}], "scene" : 0, "scenes" : [{"nodes" : [4]}], "textures" : [{"sampler" : 0, "source" : 0, "name" : ""}]}