{"extensionsUsed" : ["KHR_materials_unlit"], "accessors" : [{"bufferView" : 0, "byteOffset" : 0, "componentType" : 5123, "count" : 42, "type" : "SCALAR", "max" : [27], "min" : [0]}, {"bufferView" : 1, "byteOffset" : 0, "componentType" : 5126, "count" : 28, "type" : "VEC3", "max" : [0.5, 0.019999999552965164, 0.5], "min" : [-0.5, 0, -0.5], "name" : "POSITION"}, {"bufferView" : 1, "byteOffset" : 12, "componentType" : 5126, "count" : 28, "type" : "VEC3", "max" : [0, 1.0000044107437134, 1.0000044107437134], "min" : [0, -1.0000044107437134, -1.0000044107437134], "name" : "NORMAL"}, {"bufferView" : 1, "byteOffset" : 24, "componentType" : 5126, "count" : 28, "type" : "VEC2", "max" : [19.685039520263672, 19.685039520263672], "min" : [-19.685039520263672, -19.685039520263672], "name" : "TEXCOORD_0"}, {"bufferView" : 0, "byteOffset" : 84, "componentType" : 5123, "count" : 72, "type" : "SCALAR", "max" : [31], "min" : [0]}, {"bufferView" : 2, "byteOffset" : 0, "componentType" : 5126, "count" : 32, "type" : "VEC3", "max" : [0.5, 0.019999999552965164, 0.5], "min" : [-0.5, 0, -0.5], "name" : "POSITION"}, {"bufferView" : 2, "byteOffset" : 12, "componentType" : 5126, "count" : 32, "type" : "VEC3", "max" : [1.0000044107437134, 1.0000044107437134, -0], "min" : [-1.0000044107437134, 0, -0], "name" : "NORMAL"}, {"bufferView" : 2, "byteOffset" : 24, "componentType" : 5126, "count" : 32, "type" : "VEC2", "max" : [19.685039520263672, 11.811023712158203], "min" : [-19.685039520263672, -11.811023712158203], "name" : "TEXCOORD_0"}, {"bufferView" : 0, "byteOffset" : 228, "componentType" : 5123, "count" : 12, "type" : "SCALAR", "max" : [7], "min" : [0]}, {"bufferView" : 3, "byteOffset" : 0, "componentType" : 5126, "count" : 8, "type" : "VEC3", "max" : [0.5, 0.009999999776482582, 0.4000000059604645], "min" : [-0.5, 0.009999999776482582, -0.4000000059604645], "name" : "POSITION"}, {"bufferView" : 3, "byteOffset" : 12, "componentType" : 5126, "count" : 8, "type" : "VEC3", "max" : [0, 1.0000044107437134, -0], "min" : [0, 1.0000044107437134, -0], "name" : "NORMAL"}, {"bufferView" : 3, "byteOffset" : 24, "componentType" : 5126, "count" : 8, "type" : "VEC2", "max" : [19.685039520263672, 15.748031616210938], "min" : [-19.685039520263672, -15.748031616210938], "name" : "TEXCOORD_0"}, {"bufferView" : 0, "byteOffset" : 252, "componentType" : 5123, "count" : 6, "type" : "SCALAR", "max" : [3], "min" : [0]}, {"bufferView" : 4, "byteOffset" : 0, "componentType" : 5126, "count" : 4, "type" : "VEC3", "max" : [0.5, 0.009999999776482582, 0.009999999776482582], "min" : [-0.5, 0.009999999776482582, -0.009999999776482582], "name" : "POSITION"}, {"bufferView" : 4, "byteOffset" : 12, "componentType" : 5126, "count" : 4, "type" : "VEC3", "max" : [0, 1.0000044107437134, -0], "min" : [0, 1.0000044107437134, -0], "name" : "NORMAL"}, {"bufferView" : 4, "byteOffset" : 24, "componentType" : 5126, "count" : 4, "type" : "VEC2", "max" : [19.685039520263672, 0.3937007784843445], "min" : [-19.685039520263672, -0.39370083808898926], "name" : "TEXCOORD_0"}], "asset" : {"generator" : "Aspose.3D 25.2.0", "version" : "2.0"}, "buffers" : [{"uri" : "data:application/octet-stream;base64,", "byteLength" : 2588}], "bufferViews" : [{"buffer" : 0, "byteOffset" : 0, "byteLength" : 264, "target" : 34963}, {"buffer" : 0, "byteOffset" : 268, "byteLength" : 896, "byteStride" : 32, "target" : 34962}, {"buffer" : 0, "byteOffset" : 1168, "byteLength" : 1024, "byteStride" : 32, "target" : 34962}, {"buffer" : 0, "byteOffset" : 2196, "byteLength" : 256, "byteStride" : 32, "target" : 34962}, {"buffer" : 0, "byteOffset" : 2456, "byteLength" : 128, "byteStride" : 32, "target" : 34962}], "materials" : [{"name" : "pavement", "pbrMetallicRoughness" : {"baseColorFactor" : [0.75686276, 0.75686276, 0.8, 1], "metallicFactor" : 1, "roughnessFactor" : 1}, "emissiveFactor" : [0, 0, 0], "alphaMode" : "OPAQUE", "doubleSided" : false}], "meshes" : [{"primitives" : [{"attributes" : {"POSITION" : 1, "NORMAL" : 2, "TEXCOORD_0" : 3}, "indices" : 0, "material" : 0, "mode" : 4}, {"attributes" : {"POSITION" : 5, "NORMAL" : 6, "TEXCOORD_0" : 7}, "indices" : 4, "material" : 0, "mode" : 4}, {"attributes" : {"POSITION" : 9, "NORMAL" : 10, "TEXCOORD_0" : 11}, "indices" : 8, "material" : 0, "mode" : 4}, {"attributes" : {"POSITION" : 13, "NORMAL" : 14, "TEXCOORD_0" : 15}, "indices" : 12, "material" : 0, "mode" : 4}]}], "nodes" : [{"matrix" : [1, 0, 0, 0, 0, 1, 0, 0, 0, 0, 1, 0, 0, 0, 0.75, 1], "mesh" : 0, "name" : "road_straight"}], "scene" : 0, "scenes" : [{"nodes" : [0]}]}