{"extensionsUsed" : ["KHR_materials_unlit"], "accessors" : [{"bufferView" : 0, "byteOffset" : 0, "componentType" : 5123, "count" : 360, "type" : "SCALAR", "max" : [197], "min" : [0]}, {"bufferView" : 1, "byteOffset" : 0, "componentType" : 5126, "count" : 198, "type" : "VEC3", "max" : [0.5, 0.019999999552965164, 0.5], "min" : [-0.5, 0, -0.5], "name" : "POSITION"}, {"bufferView" : 1, "byteOffset" : 12, "componentType" : 5126, "count" : 198, "type" : "VEC3", "max" : [0.9978633522987366, 1.0000044107437134, 0.9978633522987366], "min" : [-0.9978633522987366, -1.0000044107437134, -0.9978633522987366], "name" : "NORMAL"}, {"bufferView" : 1, "byteOffset" : 24, "componentType" : 5126, "count" : 198, "type" : "VEC2", "max" : [20.930355072021484, 19.685039520263672], "min" : [-20.930355072021484, -19.685039520263672], "name" : "TEXCOORD_0"}, {"bufferView" : 0, "byteOffset" : 720, "componentType" : 5123, "count" : 204, "type" : "SCALAR", "max" : [75], "min" : [0]}, {"bufferView" : 2, "byteOffset" : 0, "componentType" : 5126, "count" : 76, "type" : "VEC3", "max" : [0.5, 0.019999999552965164, 0.5], "min" : [-0.5, 0, -0.5], "name" : "POSITION"}, {"bufferView" : 2, "byteOffset" : 12, "componentType" : 5126, "count" : 76, "type" : "VEC3", "max" : [1.0000044107437134, 1.0000044107437134, -0], "min" : [0, 0, -1.0000044107437134], "name" : "NORMAL"}, {"bufferView" : 2, "byteOffset" : 24, "componentType" : 5126, "count" : 76, "type" : "VEC2", "max" : [19.685039520263672, 19.685039520263672], "min" : [-19.685039520263672, -11.811023712158203], "name" : "TEXCOORD_0"}, {"bufferView" : 0, "byteOffset" : 1128, "componentType" : 5123, "count" : 144, "type" : "SCALAR", "max" : [51], "min" : [0]}, {"bufferView" : 3, "byteOffset" : 0, "componentType" : 5126, "count" : 52, "type" : "VEC3", "max" : [0.5, 0.009999999776482582, 0.4000000059604645], "min" : [-0.4000000059604645, 0.009999999776482582, -0.5], "name" : "POSITION"}, {"bufferView" : 3, "byteOffset" : 12, "componentType" : 5126, "count" : 52, "type" : "VEC3", "max" : [0, 1.0000044107437134, -0], "min" : [0, 1.0000044107437134, -0], "name" : "NORMAL"}, {"bufferView" : 3, "byteOffset" : 24, "componentType" : 5126, "count" : 52, "type" : "VEC2", "max" : [19.685039520263672, 19.685039520263672], "min" : [-15.748031616210938, -15.748031616210938], "name" : "TEXCOORD_0"}, {"bufferView" : 0, "byteOffset" : 1416, "componentType" : 5123, "count" : 72, "type" : "SCALAR", "max" : [25], "min" : [0]}, {"bufferView" : 4, "byteOffset" : 0, "componentType" : 5126, "count" : 26, "type" : "VEC3", "max" : [0.5, 0.009999999776482582, 0.009999999776482582], "min" : [-0.009999999776482582, 0.009999999776482582, -0.5], "name" : "POSITION"}, {"bufferView" : 4, "byteOffset" : 12, "componentType" : 5126, "count" : 26, "type" : "VEC3", "max" : [0, 1.0000044107437134, -0], "min" : [0, 1.0000044107437134, -0], "name" : "NORMAL"}, {"bufferView" : 4, "byteOffset" : 24, "componentType" : 5126, "count" : 26, "type" : "VEC2", "max" : [19.685039520263672, 19.685039520263672], "min" : [-0.3937007784843445, -0.39370083808898926], "name" : "TEXCOORD_0"}], "asset" : {"generator" : "Aspose.3D 25.2.0", "version" : "2.0"}, "buffers" : [{"uri" : "data:application/octet-stream;base64,", "byteLength" : 12844}], "bufferViews" : [{"buffer" : 0, "byteOffset" : 0, "byteLength" : 1560, "target" : 34963}, {"buffer" : 0, "byteOffset" : 1564, "byteLength" : 6336, "byteStride" : 32, "target" : 34962}, {"buffer" : 0, "byteOffset" : 7904, "byteLength" : 2432, "byteStride" : 32, "target" : 34962}, {"buffer" : 0, "byteOffset" : 10340, "byteLength" : 1664, "byteStride" : 32, "target" : 34962}, {"buffer" : 0, "byteOffset" : 12008, "byteLength" : 832, "byteStride" : 32, "target" : 34962}], "materials" : [{"name" : "pavement", "pbrMetallicRoughness" : {"baseColorFactor" : [0.75686276, 0.75686276, 0.8, 1], "metallicFactor" : 1, "roughnessFactor" : 1}, "emissiveFactor" : [0, 0, 0], "alphaMode" : "OPAQUE", "doubleSided" : false}], "meshes" : [{"primitives" : [{"attributes" : {"POSITION" : 1, "NORMAL" : 2, "TEXCOORD_0" : 3}, "indices" : 0, "material" : 0, "mode" : 4}, {"attributes" : {"POSITION" : 5, "NORMAL" : 6, "TEXCOORD_0" : 7}, "indices" : 4, "material" : 0, "mode" : 4}, {"attributes" : {"POSITION" : 9, "NORMAL" : 10, "TEXCOORD_0" : 11}, "indices" : 8, "material" : 0, "mode" : 4}, {"attributes" : {"POSITION" : 13, "NORMAL" : 14, "TEXCOORD_0" : 15}, "indices" : 12, "material" : 0, "mode" : 4}]}], "nodes" : [{"matrix" : [1, 0, 0, 0, 0, 1, 0, 0, 0, 0, 1, 0, 0, 0, 0.75, 1], "mesh" : 0, "name" : "road_bend"}], "scene" : 0, "scenes" : [{"nodes" : [0]}]}