{"extensionsUsed" : ["KHR_texture_transform"], "accessors" : [{"bufferView" : 0, "byteOffset" : 0, "componentType" : 5123, "count" : 294, "type" : "SCALAR", "max" : [183], "min" : [0]}, {"bufferView" : 1, "byteOffset" : 0, "componentType" : 5126, "count" : 184, "type" : "VEC3", "max" : [0.24529406428337097, 0.8306564092636108, 0.24529403448104858], "min" : [-0.24529403448104858, 0, -0.24529406428337097], "name" : "POSITION"}, {"bufferView" : 1, "byteOffset" : 12, "componentType" : 5126, "count" : 184, "type" : "VEC3", "max" : [0.9918784499168396, 0.7932819724082947, 0.9918784499168396], "min" : [-0.9918784499168396, -1.0000042915344238, -0.9918784499168396], "name" : "NORMAL"}, {"bufferView" : 1, "byteOffset" : 24, "componentType" : 5126, "count" : 184, "type" : "VEC4", "max" : [1.0000042915344238, 0.6088615655899048, 0.9986187815666199, 1], "min" : [-1.0000042915344238, -0.6088615655899048, -0.9986187815666199, 1], "name" : "TANGENT"}, {"bufferView" : 1, "byteOffset" : 40, "componentType" : 5126, "count" : 184, "type" : "VEC2", "max" : [0.71875, 1.975000023841858], "min" : [0.21875, 1.5750000476837158], "name" : "TEXCOORD_0"}], "asset" : {"generator" : "Aspose.3D 25.2.0", "version" : "2.0"}, "buffers" : [{"uri" : "data:application/octet-stream;base64,", "byteLength" : 9428}], "bufferViews" : [{"buffer" : 0, "byteOffset" : 0, "byteLength" : 588, "target" : 34963}, {"buffer" : 0, "byteOffset" : 592, "byteLength" : 8832, "byteStride" : 48, "target" : 34962}], "images" : [{"uri" : "Textures/colormap.png"}], "materials" : [{"name" : "colormap", "pbrMetallicRoughness" : {"baseColorFactor" : [1, 1, 1, 1], "baseColorTexture" : {"index" : 0, "texCoord" : 0}, "metallicFactor" : 0, "roughnessFactor" : 1}, "emissiveFactor" : [0, 0, 0], "alphaMode" : "OPAQUE", "doubleSided" : true}], "meshes" : [{"primitives" : [{"attributes" : {"POSITION" : 1, "NORMAL" : 2, "TANGENT" : 3, "TEXCOORD_0" : 4}, "indices" : 0, "material" : 0, "mode" : 4}]}], "nodes" : [{"mesh" : 0, "name" : "tree"}], "samplers" : [{"magFilter" : 9728, "minFilter" : 9984, "wrapS" : 10497, "wrapT" : 10497}], "scene" : 0, "scenes" : [{"nodes" : [0]}], "textures" : [{"sampler" : 0, "source" : 0, "name" : ""}]}