{"extensionsUsed" : ["KHR_texture_transform"], "accessors" : [{"bufferView" : 0, "byteOffset" : 0, "componentType" : 5123, "count" : 582, "type" : "SCALAR", "max" : [325], "min" : [0]}, {"bufferView" : 1, "byteOffset" : 0, "componentType" : 5126, "count" : 326, "type" : "VEC3", "max" : [0.26249998807907104, 0.5249999761581421, 0.4312500059604645], "min" : [-0.26249998807907104, 0.03750000149011612, -0.4312500059604645], "name" : "POSITION"}, {"bufferView" : 1, "byteOffset" : 12, "componentType" : 5126, "count" : 326, "type" : "VEC3", "max" : [1.0000044107437134, 1.0000044107437134, 1.0000044107437134], "min" : [-1.0000044107437134, -1.0000044107437134, -1.0000044107437134], "name" : "NORMAL"}, {"bufferView" : 1, "byteOffset" : 24, "componentType" : 5126, "count" : 326, "type" : "VEC4", "max" : [1.0000044107437134, 0.3826851546764374, 1.0000044107437134, 1], "min" : [-1.0000044107437134, -0.3826851546764374, -1.0000044107437134, 1], "name" : "TANGENT"}, {"bufferView" : 1, "byteOffset" : 40, "componentType" : 5126, "count" : 326, "type" : "VEC2", "max" : [0.84375, 1.975000023841858], "min" : [0.21875, 1.524999976158142], "name" : "TEXCOORD_0"}, {"bufferView" : 0, "byteOffset" : 1164, "componentType" : 5123, "count" : 660, "type" : "SCALAR", "max" : [383], "min" : [0]}, {"bufferView" : 2, "byteOffset" : 0, "componentType" : 5126, "count" : 384, "type" : "VEC3", "max" : [0.0625, 0.125, 0.125], "min" : [-0.0625, -0.125, -0.125], "name" : "POSITION"}, {"bufferView" : 2, "byteOffset" : 12, "componentType" : 5126, "count" : 384, "type" : "VEC3", "max" : [1.0000044107437134, 0.9275301694869995, 0.9275301694869995], "min" : [-1.0000044107437134, -0.9275301694869995, -0.9275301694869995], "name" : "NORMAL"}, {"bufferView" : 2, "byteOffset" : 24, "componentType" : 5126, "count" : 384, "type" : "VEC4", "max" : [0.9275301694869995, 0.3737598955631256, 1.0000044107437134, 1], "min" : [-1.0000044107437134, -0.3737598955631256, -1.0000044107437134, 1], "name" : "TANGENT"}, {"bufferView" : 2, "byteOffset" : 40, "componentType" : 5126, "count" : 384, "type" : "VEC2", "max" : [0.59375, 1.975000023841858], "min" : [0.34375, 1.774999976158142], "name" : "TEXCOORD_0"}, {"bufferView" : 0, "byteOffset" : 2484, "componentType" : 5123, "count" : 660, "type" : "SCALAR", "max" : [383], "min" : [0]}, {"bufferView" : 3, "byteOffset" : 0, "componentType" : 5126, "count" : 384, "type" : "VEC3", "max" : [0.0625, 0.125, 0.125], "min" : [-0.0625, -0.125, -0.125], "name" : "POSITION"}, {"bufferView" : 3, "byteOffset" : 12, "componentType" : 5126, "count" : 384, "type" : "VEC3", "max" : [1.0000044107437134, 0.9275301694869995, 0.9275301694869995], "min" : [-1.0000044107437134, -0.9275301694869995, -0.9275301694869995], "name" : "NORMAL"}, {"bufferView" : 3, "byteOffset" : 24, "componentType" : 5126, "count" : 384, "type" : "VEC4", "max" : [0.9275301694869995, 0.3737598955631256, 1.0000044107437134, 1], "min" : [-1.0000044107437134, -0.3737598955631256, -1.0000044107437134, 1], "name" : "TANGENT"}, {"bufferView" : 3, "byteOffset" : 40, "componentType" : 5126, "count" : 384, "type" : "VEC2", "max" : [0.59375, 1.975000023841858], "min" : [0.34375, 1.774999976158142], "name" : "TEXCOORD_0"}, {"bufferView" : 0, "byteOffset" : 3804, "componentType" : 5123, "count" : 708, "type" : "SCALAR", "max" : [399], "min" : [0]}, {"bufferView" : 4, "byteOffset" : 0, "componentType" : 5126, "count" : 400, "type" : "VEC3", "max" : [0.0625, 0.125, 0.125], "min" : [-0.0625, -0.125, -0.125], "name" : "POSITION"}, {"bufferView" : 4, "byteOffset" : 12, "componentType" : 5126, "count" : 400, "type" : "VEC3", "max" : [1.0000044107437134, 0.9275301694869995, 0.9275301694869995], "min" : [-1.0000044107437134, -0.9275301694869995, -0.9275301694869995], "name" : "NORMAL"}, {"bufferView" : 4, "byteOffset" : 24, "componentType" : 5126, "count" : 400, "type" : "VEC4", "max" : [0.9275301694869995, 0.3737598955631256, 1.0000044107437134, 1], "min" : [-1.0000044107437134, -0.3737598955631256, -1.0000044107437134, 1], "name" : "TANGENT"}, {"bufferView" : 4, "byteOffset" : 40, "componentType" : 5126, "count" : 400, "type" : "VEC2", "max" : [0.59375, 1.975000023841858], "min" : [0.34375, 1.774999976158142], "name" : "TEXCOORD_0"}, {"bufferView" : 0, "byteOffset" : 5220, "componentType" : 5123, "count" : 660, "type" : "SCALAR", "max" : [383], "min" : [0]}, {"bufferView" : 5, "byteOffset" : 0, "componentType" : 5126, "count" : 384, "type" : "VEC3", "max" : [0.0625, 0.125, 0.125], "min" : [-0.0625, -0.125, -0.125], "name" : "POSITION"}, {"bufferView" : 5, "byteOffset" : 12, "componentType" : 5126, "count" : 384, "type" : "VEC3", "max" : [1.0000044107437134, 0.9275301694869995, 0.9275301694869995], "min" : [-1.0000044107437134, -0.9275301694869995, -0.9275301694869995], "name" : "NORMAL"}, {"bufferView" : 5, "byteOffset" : 24, "componentType" : 5126, "count" : 384, "type" : "VEC4", "max" : [0.9275301694869995, 0.3737598955631256, 1.0000044107437134, 1], "min" : [-1.0000044107437134, -0.3737598955631256, -1.0000044107437134, 1], "name" : "TANGENT"}, {"bufferView" : 5, "byteOffset" : 40, "componentType" : 5126, "count" : 384, "type" : "VEC2", "max" : [0.59375, 1.975000023841858], "min" : [0.34375, 1.774999976158142], "name" : "TEXCOORD_0"}], "asset" : {"generator" : "Aspose.3D 25.2.0", "version" : "2.0"}, "buffers" : [{"uri" : "data:application/octet-stream;base64,", "byteLength" : 96708}], "bufferViews" : [{"buffer" : 0, "byteOffset" : 0, "byteLength" : 6540, "target" : 34963}, {"buffer" : 0, "byteOffset" : 6544, "byteLength" : 15648, "byteStride" : 48, "target" : 34962}, {"buffer" : 0, "byteOffset" : 22196, "byteLength" : 18432, "byteStride" : 48, "target" : 34962}, {"buffer" : 0, "byteOffset" : 40632, "byteLength" : 18432, "byteStride" : 48, "target" : 34962}, {"buffer" : 0, "byteOffset" : 59068, "byteLength" : 19200, "byteStride" : 48, "target" : 34962}, {"buffer" : 0, "byteOffset" : 78272, "byteLength" : 18432, "byteStride" : 48, "target" : 34962}], "images" : [{"uri" : "Textures/colormap.png"}], "materials" : [{"name" : "colormap", "pbrMetallicRoughness" : {"baseColorFactor" : [1, 1, 1, 1], "baseColorTexture" : {"index" : 0, "texCoord" : 0}, "metallicFactor" : 0, "roughnessFactor" : 1}, "emissiveFactor" : [0, 0, 0], "alphaMode" : "OPAQUE", "doubleSided" : true}, {"name" : "colormap", "pbrMetallicRoughness" : {"baseColorFactor" : [1, 1, 1, 1], "baseColorTexture" : {"index" : 0, "texCoord" : 0}, "metallicFactor" : 0, "roughnessFactor" : 1}, "emissiveFactor" : [0, 0, 0], "alphaMode" : "OPAQUE", "doubleSided" : true}, {"name" : "colormap", "pbrMetallicRoughness" : {"baseColorFactor" : [1, 1, 1, 1], "baseColorTexture" : {"index" : 0, "texCoord" : 0}, "metallicFactor" : 0, "roughnessFactor" : 1}, "emissiveFactor" : [0, 0, 0], "alphaMode" : "OPAQUE", "doubleSided" : true}, {"name" : "colormap", "pbrMetallicRoughness" : {"baseColorFactor" : [1, 1, 1, 1], "baseColorTexture" : {"index" : 0, "texCoord" : 0}, "metallicFactor" : 0, "roughnessFactor" : 1}, "emissiveFactor" : [0, 0, 0], "alphaMode" : "OPAQUE", "doubleSided" : true}, {"name" : "colormap", "pbrMetallicRoughness" : {"baseColorFactor" : [1, 1, 1, 1], "baseColorTexture" : {"index" : 0, "texCoord" : 0}, "metallicFactor" : 0, "roughnessFactor" : 1}, "emissiveFactor" : [0, 0, 0], "alphaMode" : "OPAQUE", "doubleSided" : true}], "meshes" : [{"primitives" : [{"attributes" : {"POSITION" : 1, "NORMAL" : 2, "TANGENT" : 3, "TEXCOORD_0" : 4}, "indices" : 0, "material" : 0, "mode" : 4}]}, {"primitives" : [{"attributes" : {"POSITION" : 6, "NORMAL" : 7, "TANGENT" : 8, "TEXCOORD_0" : 9}, "indices" : 5, "material" : 1, "mode" : 4}]}, {"primitives" : [{"attributes" : {"POSITION" : 11, "NORMAL" : 12, "TANGENT" : 13, "TEXCOORD_0" : 14}, "indices" : 10, "material" : 2, "mode" : 4}]}, {"primitives" : [{"attributes" : {"POSITION" : 16, "NORMAL" : 17, "TANGENT" : 18, "TEXCOORD_0" : 19}, "indices" : 15, "material" : 3, "mode" : 4}]}, {"primitives" : [{"attributes" : {"POSITION" : 21, "NORMAL" : 22, "TANGENT" : 23, "TEXCOORD_0" : 24}, "indices" : 20, "material" : 4, "mode" : 4}]}], "nodes" : [{"matrix" : [1, 0, 0, 0, 0, 1, 0, 0, 0, 0, 1, 0, -0.1875, 0.125, 0.25625, 1], "mesh" : 1, "name" : "wheel-bl"}, {"matrix" : [1, 0, 0, 0, 0, 1, 0, 0, 0, 0, 1, 0, 0.1875, 0.125, -0.243749991, 1], "mesh" : 2, "name" : "wheel-fr"}, {"matrix" : [1, 0, 0, 0, 0, 1, 0, 0, 0, 0, 1, 0, -0.1875, 0.125, -0.243749991, 1], "mesh" : 3, "name" : "wheel-fl"}, {"matrix" : [1, 0, 0, 0, 0, 1, 0, 0, 0, 0, 1, 0, 0.1875, 0.125, 0.25625, 1], "mesh" : 4, "name" : "wheel-br"}, {"children" : [0, 1, 2, 3], "mesh" : 0, "name" : "vehicle-truck"}], "samplers" : [{"magFilter" : 9728, "minFilter" : 9984, "wrapS" : 10497, "wrapT" : 10497}], "scene" : 0, "scenes" : [{"nodes" : [4]}], "textures" : [{"sampler" : 0, "source" : 0, "name" : ""}]}